<?xml version="1.0" standalone="no"?>
<!DOCTYPE svg PUBLIC "-//W3C//DTD SVG 20010904//EN"
 "http://www.w3.org/TR/2001/REC-SVG-20010904/DTD/svg10.dtd">
<svg version="1.0" xmlns="http://www.w3.org/2000/svg"
 width="225.000000pt" height="225.000000pt" viewBox="0 0 225.000000 225.000000"
 preserveAspectRatio="xMidYMid meet">

<g transform="translate(0.000000,225.000000) scale(0.100000,-0.100000)"
fill="#000000" stroke="none">
<path d="M375 1424 c-129 -67 -138 -242 -17 -315 20 -12 39 -24 40 -25 2 -1
-23 -39 -57 -83 -34 -44 -61 -82 -61 -85 0 -3 83 -6 185 -6 193 0 232 7 279
48 27 24 56 91 56 132 0 66 -60 152 -122 172 -7 3 16 40 50 86 34 44 62 83 62
86 0 3 -87 6 -192 6 -155 0 -199 -3 -223 -16z"/>
<path d="M1450 1175 l0 -265 130 0 130 0 0 100 0 100 63 0 c174 1 266 151 164
267 -51 58 -73 63 -292 63 l-195 0 0 -265z"/>
<path d="M281 820 c0 -33 1 -34 10 -11 6 16 6 28 -1 35 -7 7 -10 -1 -9 -24z"/>
<path d="M327 838 c-2 -7 -1 -22 4 -33 6 -16 8 -14 8 13 1 33 -4 41 -12 20z"/>
<path d="M692 820 c0 -19 2 -27 5 -17 2 9 2 25 0 35 -3 9 -5 1 -5 -18z"/>
<path d="M758 839 c-25 -14 -23 -49 2 -49 16 0 20 7 20 30 0 17 -1 30 -2 30
-2 0 -11 -5 -20 -11z m12 -24 c0 -8 -4 -15 -10 -15 -5 0 -10 7 -10 15 0 8 5
15 10 15 6 0 10 -7 10 -15z"/>
<path d="M892 820 c0 -19 2 -27 5 -17 2 9 2 25 0 35 -3 9 -5 1 -5 -18z"/>
<path d="M972 820 c0 -19 2 -27 5 -17 2 9 2 25 0 35 -3 9 -5 1 -5 -18z"/>
<path d="M1065 841 c-3 -6 3 -14 12 -20 16 -9 16 -12 3 -21 -13 -8 -13 -10 2
-10 24 0 30 16 12 30 -12 11 -12 15 -2 21 10 7 9 9 -4 9 -9 0 -19 -4 -23 -9z"/>
<path d="M1251 818 c0 -27 2 -30 9 -13 7 18 8 19 15 3 7 -18 25 -15 25 3 0 6
-4 8 -9 4 -5 -3 -12 4 -16 15 -10 31 -25 24 -24 -12z"/>
<path d="M1306 823 c10 -40 14 -41 14 -5 0 18 -5 32 -10 32 -6 0 -8 -11 -4
-27z"/>
<path d="M1420 840 c-8 -5 -18 -6 -22 -4 -4 3 -8 -7 -7 -23 0 -27 1 -27 9 -5
12 27 30 29 30 2 0 -11 4 -20 8 -20 8 0 9 46 1 54 -3 3 -11 1 -19 -4z"/>
<path d="M1602 820 c0 -19 2 -27 5 -17 2 9 2 25 0 35 -3 9 -5 1 -5 -18z"/>
<path d="M1700 818 c0 -23 3 -29 9 -19 5 8 7 20 4 28 -6 15 13 18 20 3 3 -6 4
-5 3 2 -1 7 -10 14 -19 16 -13 3 -17 -4 -17 -30z"/>
<path d="M360 815 c0 -14 4 -25 9 -25 4 0 6 11 3 25 -2 14 -6 25 -8 25 -2 0
-4 -11 -4 -25z"/>
<path d="M392 815 c0 -16 2 -22 5 -12 2 9 2 23 0 30 -3 6 -5 -1 -5 -18z"/>
<path d="M425 831 c-3 -6 0 -8 9 -5 9 4 16 -2 19 -18 5 -23 5 -23 4 1 -2 26
-21 39 -32 22z"/>
<path d="M472 815 c0 -16 2 -22 5 -12 2 9 2 23 0 30 -3 6 -5 -1 -5 -18z"/>
<path d="M498 828 c-11 -29 21 -54 36 -29 3 5 0 8 -7 7 -6 0 -12 4 -12 9 0 6
6 9 12 9 7 -1 10 2 7 7 -8 13 -31 11 -36 -3z"/>
<path d="M552 815 c0 -16 2 -22 5 -12 2 9 2 23 0 30 -3 6 -5 -1 -5 -18z"/>
<path d="M570 801 c0 -20 4 -31 8 -25 4 6 15 13 25 17 25 10 17 42 -11 43 -19
1 -22 -4 -22 -35z m40 14 c0 -8 -4 -15 -9 -15 -13 0 -22 16 -14 24 11 11 23 6
23 -9z"/>
<path d="M634 825 c-7 -17 3 -35 19 -34 9 0 9 2 0 6 -16 6 -17 33 -3 33 6 0
15 -10 20 -22 9 -23 9 -23 9 2 1 19 -4 26 -20 27 -11 1 -22 -4 -25 -12z"/>
<path d="M798 828 c-7 -17 1 -38 14 -38 7 0 7 4 -1 13 -8 10 -7 17 1 25 8 8 9
12 1 12 -6 0 -13 -6 -15 -12z"/>
<path d="M832 815 c0 -16 2 -22 5 -12 2 9 2 23 0 30 -3 6 -5 -1 -5 -18z"/>
<path d="M858 828 c-7 -17 1 -38 14 -38 7 0 7 4 -1 13 -8 10 -7 17 1 25 8 8 9
12 1 12 -6 0 -13 -6 -15 -12z"/>
<path d="M934 825 c-7 -17 3 -35 18 -35 7 0 7 4 -1 13 -8 10 -7 17 1 25 9 9 9
12 0 12 -7 0 -15 -7 -18 -15z"/>
<path d="M994 826 c-8 -20 3 -36 24 -35 15 1 15 2 0 6 -10 2 -18 11 -18 19 0
16 16 19 23 4 3 -6 4 -5 3 2 -4 18 -25 22 -32 4z"/>
<path d="M1127 833 c-15 -15 -7 -43 13 -43 15 0 20 6 19 28 -2 23 -2 24 -6 5
-2 -13 -9 -23 -15 -23 -6 0 -8 9 -5 20 5 21 4 24 -6 13z"/>
<path d="M1181 813 c1 -23 2 -24 6 -5 2 12 8 22 13 22 5 0 11 -10 13 -22 5
-20 5 -20 4 2 -1 15 -9 26 -19 28 -14 3 -18 -3 -17 -25z"/>
<path d="M1334 825 c-8 -20 3 -34 26 -32 28 2 27 42 -1 44 -11 1 -22 -4 -25
-12z m28 -10 c0 -5 -5 -11 -11 -13 -6 -2 -11 4 -11 13 0 9 5 15 11 13 6 -2 11
-8 11 -13z"/>
<path d="M1462 815 c0 -16 2 -22 5 -12 2 9 2 23 0 30 -3 6 -5 -1 -5 -18z"/>
<path d="M1491 813 c1 -23 2 -24 6 -5 2 12 8 22 13 22 5 0 11 -10 13 -22 5
-20 5 -20 4 2 -1 15 -9 26 -19 28 -14 3 -18 -3 -17 -25z"/>
<path d="M1564 825 c-7 -17 3 -35 19 -35 8 0 7 4 -2 9 -12 8 -12 12 -2 25 10
11 10 16 2 16 -6 0 -14 -7 -17 -15z"/>
<path d="M1624 825 c-8 -19 4 -35 24 -34 15 1 15 2 0 6 -19 5 -25 33 -8 33 6
0 10 -4 10 -10 0 -5 4 -10 10 -10 5 0 7 7 4 15 -8 19 -33 19 -40 0z"/>
<path d="M1753 824 c-8 -21 13 -42 28 -27 13 13 5 43 -11 43 -6 0 -13 -7 -17
-16z m27 -9 c0 -8 -4 -15 -10 -15 -5 0 -10 7 -10 15 0 8 5 15 10 15 6 0 10 -7
10 -15z"/>
<path d="M1841 811 c0 -16 3 -20 6 -11 3 8 10 20 14 26 5 7 3 11 -6 11 -10 0
-15 -10 -14 -26z"/>
<path d="M1887 834 c-15 -15 -7 -45 11 -42 9 2 17 12 17 22 0 20 -16 31 -28
20z m23 -19 c0 -8 -4 -15 -10 -15 -5 0 -10 7 -10 15 0 8 5 15 10 15 6 0 10 -7
10 -15z"/>
<path d="M1935 830 c-3 -6 1 -13 10 -16 13 -6 14 -8 3 -15 -9 -6 -9 -9 -1 -9
20 0 26 20 8 26 -13 6 -14 8 -3 15 9 6 9 9 1 9 -6 0 -15 -5 -18 -10z"/>
<path d="M300 811 c0 -5 5 -13 10 -16 6 -3 10 -2 10 4 0 5 -4 13 -10 16 -5 3
-10 2 -10 -4z"/>
<path d="M1453 685 c0 -27 2 -38 4 -22 2 15 2 37 0 50 -2 12 -4 0 -4 -28z"/>
<path d="M1481 688 c1 -27 3 -34 6 -19 l5 25 18 -24 18 -23 4 41 c2 23 0 42
-4 42 -5 0 -8 -10 -9 -22 l0 -23 -11 23 c-17 34 -28 26 -27 -20z"/>
<path d="M1857 723 c-11 -10 -8 -53 3 -53 6 0 10 14 10 30 0 31 -2 35 -13 23z"/>
<path d="M1545 689 c-4 -12 -2 -26 3 -31 17 -17 42 -1 42 27 0 32 -35 35 -45
4z m35 4 c-1 -18 -18 -35 -24 -24 -4 6 -4 16 -1 21 7 12 25 13 25 3z"/>
<path d="M1600 702 c0 -4 6 -14 12 -20 10 -10 10 -15 -2 -22 -13 -8 -13 -10 2
-10 24 0 34 21 14 32 -9 5 -14 13 -11 19 4 5 1 9 -4 9 -6 0 -11 -4 -11 -8z"/>
<path d="M1682 683 c2 -20 9 -29 26 -31 19 -3 22 1 22 27 0 17 -4 31 -10 31
-5 0 -10 -11 -10 -25 0 -14 -5 -25 -11 -25 -7 0 -9 10 -7 25 3 14 1 25 -4 25
-5 0 -8 -12 -6 -27z"/>
<path d="M1741 678 c1 -22 3 -26 6 -13 8 34 23 41 23 12 0 -28 14 -37 23 -14
4 10 6 10 6 0 1 -15 27 -17 36 -3 3 6 -1 7 -9 4 -9 -3 -16 -1 -16 5 0 6 7 11
15 11 8 0 15 7 15 15 0 18 -36 20 -44 3 -5 -10 -7 -10 -12 0 -3 6 -14 12 -25
12 -15 0 -19 -7 -18 -32z"/>
<path d="M1855 650 c3 -5 8 -10 11 -10 2 0 4 5 4 10 0 6 -5 10 -11 10 -5 0 -7
-4 -4 -10z"/>
</g>
</svg>
